<svg xmlns="http://www.w3.org/2000/svg" viewBox="0 0 48 48" role="img" aria-hidden="true">
  <defs>
    <linearGradient id="chw-bg" x1="8" y1="4" x2="44" y2="48" gradientUnits="userSpaceOnUse">
      <stop stop-color="#0f172a"/>
      <stop offset="1" stop-color="#172554"/>
    </linearGradient>
    <linearGradient id="chw-wave" x1="24" y1="30" x2="24" y2="48" gradientUnits="userSpaceOnUse">
      <stop stop-color="#38bdf8"/>
      <stop offset="1" stop-color="#0284c7"/>
    </linearGradient>
    <linearGradient id="chw-wave2" x1="0" y1="36" x2="48" y2="48" gradientUnits="userSpaceOnUse">
      <stop stop-color="#22d3ee" stop-opacity="0.45"/>
      <stop offset="1" stop-color="#0369a1" stop-opacity="0.5"/>
    </linearGradient>
  </defs>
  <rect width="48" height="48" rx="14" fill="url(#chw-bg)"/>
  <rect x="1" y="1" width="46" height="46" rx="13" fill="none" stroke="#334155" stroke-opacity="0.55" stroke-width="1"/>
  <path
    fill="#f8fafc"
    d="M14 11h12.5L30 14.5V27a2.5 2.5 0 0 1-2.5 2.5H14A2.5 2.5 0 0 1 11.5 27V13.5A2.5 2.5 0 0 1 14 11Z"
  />
  <path fill="#e2e8f0" d="M26.5 11v3.5H30l-3.5-3.5Z"/>
  <path
    stroke="#94a3b8"
    stroke-linecap="round"
    stroke-width="1.25"
    d="M14.5 21.5h9M14.5 25h7"
  />
  <path fill="url(#chw-wave)" d="M0 31.5C6 28 12 32 18 30.5s12-4 18-2.5 12 1 12-1V48H0V31.5Z"/>
  <path fill="url(#chw-wave2)" d="M0 35.5c7-1.5 14 2 21 1s14-3.5 21-2.5V48H0v-12.5Z"/>
  <circle cx="36" cy="16" r="2.25" fill="#38bdf8" opacity="0.85"/>
</svg>
